<svg width="201" height="93" viewBox="0 0 201 93" fill="none" xmlns="http://www.w3.org/2000/svg">
<path fill-rule="evenodd" clip-rule="evenodd" d="M50.9846 47.9948L47.1747 41.179C46.8727 40.6386 46.703 39.906 46.703 39.1418L46.703 30.8035C46.703 23.0979 46.2545 20.3037 45.4124 17.4867C44.5703 14.6696 43.3346 12.4588 41.7598 10.9522C40.1852 9.44557 38.6233 8.64325 34.316 8.64325H28.1552C27.9773 8.64325 27.8332 8.38526 27.8332 8.06701C27.8332 7.9142 27.867 7.76766 27.9274 7.65961L31.7373 0.843832C32.0393 0.303523 32.449 0 32.876 0H35.0183C40.7613 0 42.8439 1.06973 44.9434 3.07851C47.043 5.08728 48.6908 8.03507 49.8136 11.7912C50.9365 15.5472 51.5344 19.2729 51.5344 29.5471L51.5345 47.5873C51.5345 47.9056 51.3903 48.1635 51.2124 48.1635C51.1269 48.1635 51.045 48.1028 50.9846 47.9948ZM24.7067 91.211L28.5166 84.3953C28.8185 83.8549 29.2281 83.5514 29.6552 83.5514H34.3161C38.6234 83.5514 40.1853 82.7491 41.7599 81.2425C43.3346 79.7358 44.5704 77.525 45.4125 74.7079C46.2546 71.8908 46.703 69.0968 46.703 61.3912L46.703 50.3695C46.703 50.0512 46.8473 49.7933 47.0252 49.7933C47.1106 49.7933 47.1925 49.854 47.2529 49.9621L51.0628 56.7778C51.3648 57.3182 51.5345 58.0509 51.5345 58.8151L51.5345 62.6476C51.5345 72.9219 50.9365 76.6473 49.8137 80.4035C48.6908 84.1597 47.0431 87.1073 44.9435 89.1161C42.844 91.125 40.7614 92.1947 35.0184 92.1947H24.9344C24.7565 92.1947 24.6123 91.9368 24.6123 91.6185C24.6123 91.4656 24.6463 91.3191 24.7067 91.211ZM0.549889 44.1999L4.35971 51.0157C4.66172 51.556 4.83141 52.2887 4.83141 53.0529L4.83142 61.3912C4.83143 69.0968 5.27988 71.8908 6.12202 74.7079C6.96418 77.525 8.20001 79.7358 9.77468 81.2425C11.3493 82.7491 12.9112 83.5514 17.2185 83.5514H23.3793C23.5572 83.5514 23.7013 83.8093 23.7013 84.1276C23.7013 84.2805 23.6673 84.427 23.6069 84.5351L19.7972 91.3508C19.4951 91.8912 19.0855 92.1947 18.6585 92.1947H16.5162C10.7731 92.1947 8.69061 91.125 6.59107 89.1161C4.49152 87.1073 2.84378 84.1597 1.72092 80.4035C0.598071 76.6473 8.56406e-05 72.9219 7.35743e-05 62.6476L5.23876e-05 44.6074C5.20137e-05 44.289 0.144259 44.0311 0.322144 44.0311C0.407569 44.0311 0.489486 44.0918 0.549889 44.1999ZM23.018 7.79941C22.716 8.33973 22.3064 8.64325 21.8792 8.64325H17.2185C12.9112 8.64325 11.3493 9.44557 9.7746 10.9522C8.19993 12.4588 6.9641 14.6696 6.12196 17.4867C5.27982 20.3037 4.83137 23.0979 4.83138 30.8035L4.83139 41.8251C4.83139 42.1435 4.68719 42.4014 4.5093 42.4014C4.42387 42.4014 4.34195 42.3407 4.28156 42.2326L0.471731 35.4168C0.169713 34.8765 4.0099e-05 34.1438 3.92015e-05 33.3796L3.47006e-05 29.5471C2.26344e-05 19.2729 0.597999 15.5472 1.72084 11.7912C2.84369 8.03507 4.49142 5.08728 6.59097 3.07851C8.69051 1.06973 10.773 0 16.5161 0H26.6C26.7779 0 26.9222 0.257997 26.9222 0.576232C26.9222 0.729055 26.8882 0.875588 26.8278 0.983651L23.018 7.79941ZM42.9376 33.6418L37.7425 24.7595C37.3989 24.1449 36.9972 23.6982 36.5689 23.4193C36.2148 23.1797 35.8309 23.0487 35.4299 23.0487H20.0994C19.9215 23.0487 19.7774 22.7907 19.7774 22.4724C19.7774 22.3195 19.8114 22.1729 19.8718 22.0648L23.6852 15.2484C23.9872 14.7086 24.3965 14.4054 24.8234 14.4054H37.0403C40.5981 14.4054 43.4822 19.565 43.4822 25.9298L43.4822 33.2252C43.4822 33.5435 43.3379 33.8014 43.16 33.8014C43.0772 33.8014 42.9974 33.7443 42.9376 33.6418ZM32.7297 76.8222L37.6945 67.5282C38.0381 66.9139 38.2879 66.195 38.4436 65.4288C38.5776 64.7952 38.6509 64.1086 38.6509 63.391L38.6509 35.9649C38.6509 35.6468 38.7949 35.3887 38.9728 35.3887C39.0583 35.3887 39.1403 35.4496 39.2008 35.5577L43.0109 42.3798C43.3126 42.9202 43.4822 43.6526 43.4822 44.4163L43.4822 66.2721C43.4822 72.6369 40.5981 77.7964 37.0403 77.7964H32.9624C32.7845 77.7964 32.6404 77.5385 32.6404 77.2202C32.6404 77.0719 32.6723 76.9293 32.7297 76.8222ZM8.59695 58.5528L13.7919 67.4353C14.1355 68.0497 14.5373 68.4965 14.9656 68.7754C15.3197 69.0149 15.7036 69.146 16.1046 69.146H31.4351C31.613 69.146 31.7571 69.4039 31.7571 69.7222C31.7571 69.8751 31.7231 70.0219 31.6628 70.1299L27.8493 76.9462C27.5473 77.486 27.1379 77.7893 26.7111 77.7893H14.4941C10.9364 77.7893 8.05235 72.6297 8.05235 66.2649L8.05234 58.9695C8.05234 58.6512 8.19654 58.3933 8.37442 58.3933C8.45732 58.3933 8.53703 58.4504 8.59695 58.5528ZM18.8048 15.3798L13.8399 24.6736C13.4964 25.2882 13.2467 26.0071 13.0908 26.7731C12.9569 27.4067 12.8836 28.0935 12.8836 28.8108L12.8837 56.237C12.8837 56.5553 12.7395 56.8132 12.5616 56.8132C12.4761 56.8132 12.3941 56.7525 12.3337 56.6442L8.52354 49.822C8.2218 49.2819 8.05233 48.5495 8.05233 47.7858L8.0523 25.9298C8.05229 19.565 10.9364 14.4054 14.494 14.4054H18.572C18.7499 14.4054 18.8941 14.6634 18.8941 14.9817C18.8941 15.13 18.8621 15.2726 18.8048 15.3798ZM66.2979 26.5928H67.5445C68.3952 26.5928 69.0848 27.8238 69.0848 29.3425L69.0848 31.946C69.0848 32.0266 69.1216 32.0922 69.1668 32.0922C69.8763 29.8516 70.8316 28.2221 72.0324 27.2038C73.2333 26.1853 74.5296 25.6762 75.9214 25.6762C77.4224 25.6762 78.7734 26.1725 79.9743 27.1657C81.175 28.1586 82.1985 29.5207 83.0446 31.2519C83.8906 32.9834 84.532 35.0201 84.9687 37.3624C85.4054 39.7047 85.6237 42.2254 85.6237 44.9242C85.6237 47.6229 85.3918 50.1434 84.9278 52.4859C84.4639 54.8282 83.8156 56.8649 82.9832 58.5964C82.1509 60.3276 81.1478 61.6898 79.9743 62.6826C78.8008 63.6755 77.518 64.1721 76.1262 64.1721C75.1983 64.1721 74.3795 63.9939 73.67 63.6374C72.9603 63.2809 72.3327 62.8227 71.7868 62.2626C71.2409 61.7023 70.777 61.1041 70.395 60.4677C70.0128 59.831 69.699 59.2074 69.4533 58.5964C69.3856 58.5964 69.3305 58.6945 69.3305 58.8156L69.3305 77.3145C69.3305 79.1678 68.4888 80.6703 67.4508 80.6703H66.2979C65.2597 80.6703 64.418 79.1678 64.418 77.3145L64.418 29.9484C64.418 28.095 65.2596 26.5928 66.2979 26.5928ZM80.7113 44.9242C80.7113 43.4985 80.5816 42.1235 80.3222 40.7995C80.063 39.4757 79.6809 38.3046 79.1759 37.2861C78.6711 36.2676 78.0638 35.4529 77.3543 34.8419C76.6447 34.2309 75.8396 33.9253 74.939 33.9253C74.0384 33.9253 73.2333 34.2309 72.5236 34.8419C71.814 35.4529 71.2069 36.2676 70.7019 37.2861C70.1971 38.3046 69.8149 39.4757 69.5557 40.7995C69.2965 42.1235 69.1668 43.4985 69.1668 44.9242C69.1668 46.3498 69.2965 47.7248 69.5557 49.0486C69.8149 50.3726 70.1971 51.5437 70.7019 52.5622C71.2069 53.5807 71.814 54.3954 72.5236 55.0064C73.2333 55.6175 74.0384 55.923 74.939 55.923C75.8397 55.923 76.6448 55.6175 77.3543 55.0064C78.0639 54.3954 78.6711 53.5807 79.176 52.5622C79.6809 51.5437 80.063 50.3726 80.3222 49.0486C80.5816 47.7248 80.7113 46.3498 80.7113 44.9242ZM92.7026 26.5928H94.1093C95.0073 26.5928 95.7353 27.8922 95.7353 29.4951L95.7353 32.2515C95.7353 32.3322 95.7719 32.3977 95.8171 32.3977C96.363 30.2591 97.1408 28.6042 98.1506 27.4328C99.1604 26.2617 100.32 25.6762 101.63 25.6762C101.93 25.6762 102.224 25.7272 102.51 25.8288C103.022 26.0107 103.391 26.8125 103.391 27.7437L103.391 32.7724C103.391 33.7837 102.931 34.6035 102.365 34.6035C102.304 34.6035 102.243 34.594 102.183 34.5745C101.787 34.4473 101.398 34.3835 101.016 34.3835C99.87 34.3835 98.9488 34.7781 98.2529 35.5674C97.557 36.3567 97.0247 37.2605 96.6563 38.279C96.2879 39.2975 96.0422 40.3157 95.9194 41.3342C95.7966 42.3527 95.7353 43.1164 95.7353 43.6258L95.7354 59.8996C95.7354 61.753 94.8935 63.2555 93.8555 63.2555H92.7026C91.6644 63.2555 90.8229 61.753 90.8229 59.8996L90.8228 29.9484C90.8228 28.095 91.6644 26.5928 92.7026 26.5928ZM109.323 26.5928H110.476C111.514 26.5928 112.356 28.095 112.356 29.9484L112.356 59.8996C112.356 61.753 111.514 63.2555 110.476 63.2555H109.323C108.285 63.2555 107.443 61.753 107.443 59.8996L107.443 29.9484C107.443 28.095 108.285 26.5928 109.323 26.5928ZM106.747 14.1427C106.747 12.666 107.041 11.3802 107.628 10.2854C108.214 9.19063 108.958 8.64325 109.859 8.64325C110.759 8.64325 111.517 9.1652 112.131 10.2091C112.745 11.2529 113.052 12.5641 113.052 14.1427C113.052 15.7212 112.745 17.0324 112.131 18.0763C111.517 19.1201 110.759 19.6421 109.859 19.6421C108.958 19.6421 108.214 19.0947 107.628 17.9999C107.041 16.9051 106.747 15.6194 106.747 14.1427ZM127.912 34.9712C126.916 33.6628 126.029 33.0088 125.251 33.0088C124.596 33.0088 123.955 33.3143 123.327 33.9253C122.699 34.5364 122.386 35.5293 122.386 36.904C122.386 38.0244 122.645 38.8391 123.164 39.3484C123.682 39.8576 124.337 40.2904 125.128 40.6468C125.92 41.0033 126.773 41.3724 127.687 41.7542C128.601 42.1363 129.454 42.7217 130.246 43.511C131.037 44.3003 131.692 45.3823 132.211 46.7573C132.729 48.132 132.988 50.0161 132.988 52.4096C132.988 54.599 132.736 56.4449 132.231 57.9469C131.726 59.4492 131.071 60.6585 130.266 61.575C129.461 62.4916 128.554 63.1536 127.544 63.5611C126.534 63.9685 125.524 64.1721 124.514 64.1721C122.986 64.1721 121.581 63.7647 120.298 62.95C119.796 62.6309 119.193 61.9899 118.49 61.0265C117.666 59.8984 117.511 57.7917 118.143 56.3212C118.197 56.196 118.255 56.0779 118.318 55.9673L118.828 55.0761C119.531 53.846 120.647 53.793 121.386 54.9544C121.684 55.4226 121.942 55.7837 122.16 56.0375C122.884 56.8777 123.764 57.2977 124.801 57.2977C125.156 57.2977 125.524 57.2214 125.906 57.0688C126.288 56.9159 126.643 56.6613 126.971 56.3048C127.298 55.9483 127.564 55.5027 127.769 54.9683C127.974 54.4335 128.076 53.8097 128.076 53.097C128.076 51.8239 127.817 50.8817 127.298 50.2707C126.78 49.6596 126.125 49.1633 125.333 48.7815C124.542 48.3994 123.689 48.0429 122.774 47.712C121.86 47.3811 121.007 46.8464 120.216 46.1081C119.425 45.3698 118.769 44.3385 118.251 43.0147C117.732 41.6907 117.473 39.8576 117.473 37.5153C117.473 35.4783 117.698 33.7089 118.149 32.2067C118.599 30.7047 119.193 29.4698 119.929 28.5022C120.666 27.5347 121.512 26.822 122.467 26.3636C123.423 25.9054 124.392 25.6762 125.374 25.6762C126.684 25.6762 127.98 26.0962 129.263 26.9365C129.728 27.2407 130.246 27.8041 130.817 28.6264L130.817 28.6267C131.626 29.7894 131.753 31.9019 131.102 33.345C131.048 33.4651 130.989 33.5783 130.926 33.6838L130.314 34.7118C129.653 35.8212 128.643 35.9303 127.912 34.9712ZM139.085 26.5928H139.992C141.03 26.5928 141.872 28.095 141.872 29.9484L141.872 32.3214C142.391 30.5899 143.093 29.0498 144.062 27.7001C145.03 26.3508 146.335 25.6762 147.971 25.6762C151.056 25.6762 153.103 27.9422 154.113 32.474C154.822 30.1318 155.708 28.4131 156.773 27.3183C157.837 26.2235 159.107 25.6762 160.58 25.6762C161.89 25.6762 162.996 26.0834 163.897 26.8983C164.796 27.7129 165.527 28.8334 166.086 30.2591C166.646 31.6847 167.049 33.3524 167.294 35.2619C167.539 37.1714 167.663 39.2209 167.663 41.4105L167.663 59.8996C167.663 61.753 166.821 63.2555 165.783 63.2555H164.63C163.591 63.2555 162.751 61.753 162.751 59.8996L162.751 42.48C162.751 41.3598 162.696 40.2775 162.587 39.2337C162.477 38.1898 162.286 37.2733 162.013 36.484C161.741 35.6947 161.372 35.0711 160.909 34.6127C160.444 34.1545 159.844 33.9253 159.107 33.9253C158.342 33.9253 157.694 34.1927 157.163 34.7272C156.631 35.2619 156.193 35.9749 155.852 36.8661C155.512 37.757 155.265 38.7755 155.116 39.9211C154.965 41.0668 154.89 42.2254 154.89 43.3965L154.89 59.8996C154.89 61.753 154.048 63.2555 153.01 63.2555H151.858C150.819 63.2555 149.977 61.753 149.977 59.8996L149.977 41.4105C149.977 39.1192 149.719 37.2989 149.199 35.9493C148.682 34.5999 147.822 33.9253 146.62 33.9253C145.802 33.9253 145.112 34.1799 144.553 34.689C143.993 35.1984 143.53 35.8858 143.161 36.7514C142.793 37.617 142.527 38.6101 142.363 39.7303C142.199 40.8504 142.118 42.0216 142.118 43.2437L142.118 59.8996C142.118 61.753 141.276 63.2555 140.238 63.2555H139.085C138.047 63.2555 137.205 61.753 137.205 59.8996L137.205 29.9484C137.205 28.095 138.047 26.5928 139.085 26.5928ZM175.602 26.5928H176.754C177.792 26.5928 178.634 28.095 178.634 29.9484L178.634 59.8996C178.634 61.753 177.792 63.2555 176.754 63.2555H175.602C174.563 63.2555 173.721 61.753 173.721 59.8996L173.721 29.9484C173.721 28.095 174.563 26.5928 175.602 26.5928ZM173.025 14.1427C173.025 12.666 173.319 11.3802 173.906 10.2854C174.493 9.19063 175.236 8.64325 176.137 8.64325C177.038 8.64325 177.795 9.1652 178.409 10.2091C179.023 11.2529 179.33 12.5641 179.33 14.1427C179.33 15.7212 179.023 17.0324 178.409 18.0763C177.795 19.1201 177.038 19.6421 176.137 19.6421C175.236 19.6421 174.493 19.0947 173.906 17.9999C173.319 16.9051 173.025 15.6194 173.025 14.1427ZM197.056 35.5843C196.855 35.3019 196.677 35.0798 196.524 34.9182C195.895 34.2562 195.254 33.9253 194.6 33.9253C193.699 33.9253 192.894 34.2309 192.184 34.8419C191.474 35.4529 190.867 36.2676 190.362 37.2861C189.857 38.3046 189.476 39.4757 189.216 40.7995C188.956 42.1235 188.827 43.4985 188.827 44.9242C188.827 46.3498 188.956 47.7248 189.216 49.0486C189.476 50.3726 189.857 51.5437 190.362 52.5622C190.867 53.5807 191.474 54.3954 192.184 55.0064C192.894 55.6175 193.699 55.923 194.6 55.923C195.363 55.923 196.073 55.6303 196.729 55.0446C196.861 54.9263 197.004 54.7652 197.159 54.5616L197.159 54.5618C197.941 53.5357 199.032 53.7403 199.677 55.0343L200.425 56.532C201.082 57.8501 201.016 59.8699 200.277 61.0431C200.186 61.187 200.087 61.3141 199.983 61.4224C199.341 62.0844 198.693 62.6189 198.039 63.0263C197.383 63.4338 196.756 63.7265 196.155 63.9047C195.554 64.083 195.036 64.1721 194.6 64.1721C193.125 64.1721 191.734 63.7137 190.424 62.7971C189.114 61.8806 187.981 60.5821 187.025 58.9019C186.071 57.2214 185.314 55.1975 184.754 52.8296C184.195 50.4617 183.915 47.8268 183.915 44.9242C183.915 42.0216 184.195 39.3866 184.754 37.0187C185.314 34.6509 186.071 32.6267 187.025 30.9464C187.981 29.2659 189.114 27.9675 190.424 27.0509C191.734 26.1344 193.125 25.6762 194.6 25.6762C195.855 25.6762 197.118 26.1218 198.386 27.0128C198.869 27.3524 199.44 27.9596 200.097 28.8344C200.931 29.942 201.102 32.0446 200.482 33.5304C200.436 33.6408 200.386 33.7458 200.333 33.8452L199.574 35.2616C198.905 36.5078 197.818 36.6474 197.056 35.5843Z" fill="#969696"/>
</svg>
