<svg width="377" height="73" viewBox="0 0 377 73" fill="none" xmlns="http://www.w3.org/2000/svg">
<path fill-rule="evenodd" clip-rule="evenodd" d="M35.4151 3.14105C35.3705 0.164899 31.6177 -1.11235 29.7668 1.2187L1.83655 36.3951C-1.46011 40.547 1.49666 46.6701 6.79822 46.6701H35.683L36.0226 69.3388C36.0672 72.3149 39.8199 73.5919 41.6708 71.2611L69.601 36.0847C72.8975 31.9327 69.9408 25.8096 64.6394 25.8096H35.5639L35.4151 3.14105ZM251.379 48.0746V51.959H243.038V5.0868H251.508V23.6025C252.931 21.3367 256.422 19.265 261.143 19.265C270.455 19.265 275.823 26.4512 275.823 35.9033C275.823 45.5497 269.874 52.7359 260.82 52.7359C256.422 52.7359 253.06 50.7937 251.379 48.0746ZM259.332 45.0317C263.73 45.0317 267.221 41.7947 267.221 35.968C267.221 30.1413 263.73 26.9691 259.332 26.9691C255 26.9691 251.379 30.1413 251.379 35.968C251.379 41.73 255 45.0317 259.332 45.0317ZM206.24 43.2843C206.24 48.2694 210.378 52.866 217.169 52.866C221.888 52.866 224.928 50.6647 226.544 48.1398C226.544 49.37 226.673 51.1179 226.867 51.9596H234.756C234.562 50.859 234.369 48.5931 234.369 46.9099V31.2426C234.369 24.8333 230.618 19.1362 220.531 19.1362C211.995 19.1362 207.404 24.639 206.887 29.6241L214.517 31.2426C214.776 28.4588 216.845 26.0634 220.595 26.0634C224.217 26.0634 225.963 27.9408 225.963 30.2068C225.963 31.3074 225.381 32.2138 223.57 32.4727L215.746 33.638C210.444 34.4149 206.24 37.5872 206.24 43.2843ZM218.979 46.4566C216.199 46.4566 214.84 44.6439 214.84 42.7665C214.84 40.3063 216.586 39.0762 218.785 38.7525L225.963 37.6519V39.0762C225.963 44.7087 222.6 46.4566 218.979 46.4566ZM98.4288 43.0903C98.8165 46.7158 102.114 52.9308 111.685 52.9308C120.026 52.9308 124.036 47.6221 124.036 42.4429C124.036 37.7815 120.867 33.9619 114.595 32.667L110.068 31.6959C108.322 31.3722 107.158 30.4011 107.158 28.8473C107.158 27.0345 108.969 25.6751 111.232 25.6751C114.853 25.6751 116.211 28.0704 116.47 29.948L123.647 28.3295C123.26 24.8982 120.22 19.1363 111.168 19.1363C104.313 19.1363 99.2696 23.8624 99.2696 29.5594C99.2696 34.0265 102.05 37.7169 108.193 39.0763L112.396 40.0475C114.853 40.5653 115.823 41.7308 115.823 43.155C115.823 44.8383 114.465 46.3273 111.62 46.3273C107.87 46.3273 105.994 43.9966 105.8 41.4717L98.4288 43.0903ZM151.52 51.9595H159.732C159.603 50.8589 159.408 48.6578 159.408 46.1975V20.1071H150.808V38.6229C150.808 42.3132 148.609 44.9028 144.795 44.9028C140.785 44.9028 138.974 42.0542 138.974 38.4934V20.1071H130.374V40.2415C130.374 47.1687 134.771 52.8012 142.466 52.8012C145.828 52.8012 149.516 51.5064 151.261 48.5283C151.261 49.823 151.39 51.3121 151.52 51.9595ZM177.187 48.8517L177.187 64.2599L168.587 64.2599L168.587 20.1069L176.928 20.1069L176.928 23.9913C178.351 21.5311 181.908 19.3948 186.692 19.3948C196.004 19.3948 201.37 26.5163 201.37 35.9683C201.37 45.6147 195.357 52.7363 186.369 52.7362C181.972 52.7362 178.738 50.9881 177.187 48.8517ZM185.011 45.032C189.408 45.032 192.899 41.7304 192.899 36.0331C192.899 30.4007 189.408 27.0989 185.011 27.0989C180.614 27.0989 177.058 30.4007 177.058 36.0331C177.058 41.6655 180.614 45.032 185.011 45.032ZM280.693 43.2842C280.693 48.2693 284.831 52.8659 291.62 52.8659C296.34 52.8659 299.38 50.6646 300.996 48.1397C300.996 49.3698 301.126 51.1178 301.32 51.9595H309.208C309.015 50.8589 308.821 48.5929 308.821 46.9097V31.2424C308.821 24.8331 305.07 19.1361 294.983 19.1361C286.447 19.1361 281.856 24.6389 281.339 29.624L288.968 31.2424C289.228 28.4586 291.297 26.0632 295.047 26.0632C298.669 26.0632 300.415 27.9407 300.415 30.2066C300.415 31.3072 299.833 32.2137 298.022 32.4726L290.198 33.6379C284.896 34.4148 280.693 37.587 280.693 43.2842ZM293.431 46.4565C290.651 46.4565 289.292 44.6438 289.292 42.7663C289.292 40.3062 291.038 39.076 293.237 38.7524L300.415 37.6518V39.076C300.415 44.7086 297.052 46.4565 293.431 46.4565ZM328.03 52.9308C318.46 52.9307 315.162 46.7157 314.775 43.0902L322.146 41.4716C322.34 43.9965 324.215 46.3273 327.966 46.3273C330.811 46.3273 332.169 44.8383 332.169 43.155C332.169 41.7308 331.199 40.5653 328.742 40.0474L324.538 39.0763C318.395 37.7168 315.615 34.0264 315.615 29.5594C315.615 23.8623 320.658 19.1363 327.513 19.1363C336.566 19.1363 339.605 24.8982 339.993 28.3294L332.816 29.948C332.557 28.0704 331.199 25.6751 327.577 25.6751C325.314 25.675 323.504 27.0345 323.504 28.8473C323.504 30.4011 324.667 31.3722 326.413 31.6959L330.94 32.6669C337.212 33.9618 340.38 37.7815 340.38 42.4429C340.38 47.6221 336.372 52.9308 328.03 52.9308ZM353.442 32.408C353.636 29.4947 356.094 26.1281 360.555 26.1281C365.469 26.1281 367.539 29.2357 367.669 32.408H353.442ZM368.509 40.6948C367.474 43.5433 365.276 45.5503 361.267 45.5503C356.998 45.5503 353.442 42.5075 353.249 38.2995H376.01C376.01 38.2677 376.018 38.1659 376.029 38.0123C376.065 37.5391 376.139 36.5736 376.139 35.645C376.139 25.416 370.255 19.1363 360.426 19.1363C352.279 19.1363 344.777 25.7397 344.777 35.904C344.777 46.6509 352.472 52.9307 361.202 52.9307C369.026 52.9307 374.07 48.3341 375.687 42.8312L368.509 40.6948Z" fill="#969696"/>
</svg>
